<?xml version="1.0" encoding="UTF-8" standalone="no" ?>
<!DOCTYPE svg PUBLIC "-//W3C//DTD SVG 1.1//EN" "http://www.w3.org/Graphics/SVG/1.1/DTD/svg11.dtd">
<svg xmlns="http://www.w3.org/2000/svg" xmlns:xlink="http://www.w3.org/1999/xlink" version="1.1" width="1080" height="1080" viewBox="0 0 1080 1080" xml:space="preserve">
<desc>Created with Fabric.js 5.2.4</desc>
<defs>
</defs>
<g transform="matrix(1 0 0 1 540 540)" id="2ee47532-e822-4f1b-9f25-23e548e0da51"  >
<rect style="stroke: none; stroke-width: 1; stroke-dasharray: none; stroke-linecap: butt; stroke-dashoffset: 0; stroke-linejoin: miter; stroke-miterlimit: 4; fill: rgb(255,255,255); fill-rule: nonzero; opacity: 1; visibility: hidden;" vector-effect="non-scaling-stroke"  x="-540" y="-540" rx="0" ry="0" width="1080" height="1080" />
</g>
<g transform="matrix(1 0 0 1 540 540)" id="b6361664-3fd1-4cbb-80b2-6dd416595c04"  >
</g>
<g transform="matrix(4.25 0 0 4.25 541.59 538.82)"  >
<path style="stroke: none; stroke-width: 1; stroke-dasharray: none; stroke-linecap: butt; stroke-dashoffset: 0; stroke-linejoin: miter; stroke-miterlimit: 4; fill: rgb(226,228,228); fill-rule: nonzero; opacity: 1;" vector-effect="non-scaling-stroke"  transform=" translate(-14.83, -45.4)" d="M 0 0 C 1.21410049 -0.00428513 2.42820099 -0.00857025 3.67909241 -0.01298523 C 6.24007546 -0.01871404 8.80107478 -0.01923951 11.36206055 -0.01489258 C 15.26835008 -0.01173235 19.17388208 -0.03521231 23.08007812 -0.06054688 C 25.5742178 -0.06282006 28.0683595 -0.06352328 30.5625 -0.0625 C 31.72418198 -0.07170975 32.88586395 -0.08091949 34.08274841 -0.09040833 C 41.86905161 -0.04623634 48.05663486 0.44856271 54.16015625 5.73828125 C 58.59696514 10.93568595 60.45854176 14.07018309 60.5246582 21.0222168 C 60.54391106 22.78501228 60.54391106 22.78501228 60.56355286 24.5834198 C 60.57093979 25.85526627 60.57832672 27.12711273 60.5859375 28.4375 C 60.59400925 29.74604446 60.60208099 31.05458893 60.61039734 32.40278625 C 60.62541418 35.17599355 60.63525581 37.94917534 60.64282227 40.72241211 C 60.65385794 44.25858761 60.68822809 47.79412885 60.72799397 51.33008099 C 60.76058285 54.7200274 60.76494989 58.10990912 60.7734375 61.5 C 60.79094559 62.76172531 60.80845367 64.02345062 60.82649231 65.32341003 C 60.80675529 73.35807518 60.20659073 79.39740606 54.3125 85.359375 C 53.64347656 85.81441406 52.97445312 86.26945312 52.28515625 86.73828125 C 51.61355469 87.21136719 50.94195312 87.68445313 50.25 88.171875 C 46.65116494 90.30752866 43.62976119 90.44362919 39.53442383 90.49365234 C 38.33920609 90.50971527 37.14398834 90.5257782 35.91255188 90.54232788 C 30.44129672 90.58683473 24.97017259 90.62828697 19.4987793 90.65087891 C 16.61499126 90.66419294 13.7319151 90.69199979 10.84838867 90.73291016 C 7.35647716 90.7824432 3.86520881 90.80702499 0.37296104 90.81410599 C -1.59234547 90.82401472 -3.55748165 90.85820993 -5.52250671 90.89291382 C -13.85630659 90.87330023 -19.20815726 89.75282085 -25.16349792 83.78695679 C -29.25477555 79.14122524 -30.89663341 75.71437581 -30.94287109 69.55761719 C -30.9556308 68.40251648 -30.9683905 67.24741577 -30.98153687 66.05731201 C -30.98376251 64.81250061 -30.98598816 63.56768921 -30.98828125 62.28515625 C -30.99493805 61.00022278 -31.00159485 59.71528931 -31.00845337 58.39141846 C -31.02041773 55.6712305 -31.02413529 52.95116943 -31.02294922 50.23095703 C -31.02274655 46.76313761 -31.04999707 43.29614251 -31.08449364 39.82851791 C -31.11223183 36.50155328 -31.11091535 33.17473481 -31.11328125 29.84765625 C -31.1348378 27.99258453 -31.1348378 27.99258453 -31.15682983 26.10003662 C -31.11452336 18.07149967 -30.22392748 12.6133229 -24.9765625 6.27734375 C -24.43644531 5.83132812 -23.89632812 5.3853125 -23.33984375 4.92578125 C -22.80746094 4.46429688 -22.27507812 4.0028125 -21.7265625 3.52734375 C -14.9832199 -0.4602449 -7.59111423 -0.00594531 0 0 Z" stroke-linecap="round" />
</g>
<g transform="matrix(4.25 0 0 4.25 541.28 544.99)"  >
<path style="stroke: none; stroke-width: 1; stroke-dasharray: none; stroke-linecap: butt; stroke-dashoffset: 0; stroke-linejoin: miter; stroke-miterlimit: 4; fill: rgb(253,253,253); fill-rule: nonzero; opacity: 1;" vector-effect="non-scaling-stroke"  transform=" translate(-2.66, -26.8)" d="M 0 0 C 1.43363892 0.01015137 1.43363892 0.01015137 2.89624023 0.02050781 C 23.90672219 0.32508454 23.90672219 0.32508454 30.25 6.25 C 31.80024464 9.35048928 31.53992015 11.82894218 31.25 15.25 C 30.26483398 16.40918945 30.26483398 16.40918945 29.25976562 17.59179688 C 26.81589677 20.82416375 26.76441073 22.46341038 26.78125 26.46875 C 26.76707031 27.64824219 26.75289062 28.82773438 26.73828125 30.04296875 C 26.74408203 31.87794922 26.74408203 31.87794922 26.75 33.75 C 26.75767258 36.17709356 26.74792621 38.60431968 26.71875 41.03125 C 26.72326172 42.10439453 26.72777344 43.17753906 26.73242188 44.28320312 C 26.12851463 47.99711043 24.92090105 49.63547681 22.25 52.25 C 18.72442005 53.82935183 14.63281947 53.42946462 10.81640625 53.453125 C 9.74397926 53.46167511 9.74397926 53.46167511 8.64988708 53.47039795 C 7.14119943 53.47982114 5.63249144 53.48637125 4.1237793 53.49023438 C 1.82368985 53.49995272 -0.47551013 53.5310049 -2.77539062 53.5625 C -4.24478639 53.56902971 -5.71418851 53.57428031 -7.18359375 53.578125 C -7.86707382 53.5904718 -8.55055389 53.6028186 -9.25474548 53.61553955 C -13.58985737 53.59544352 -16.29992572 52.89912819 -19.75 50.25 C -21.17267862 47.40464275 -20.96971869 44.88781448 -21.06640625 41.7109375 C -21.12924805 39.75800781 -21.12924805 39.75800781 -21.19335938 37.765625 C -21.23317299 36.38541955 -21.27288522 35.00521117 -21.3125 33.625 C -21.35569407 32.23696585 -21.39930865 30.84894472 -21.44335938 29.4609375 C -21.54972 26.05739744 -21.65174714 22.65378222 -21.75 19.25 C -22.74 18.92 -23.73 18.59 -24.75 18.25 C -26.49689195 14.75621609 -26.30404002 11.06232297 -25.75 7.25 C -23.75901834 4.1307954 -22.21362006 2.68611214 -18.63525391 1.61987305 C -12.37046468 0.36323227 -6.38284963 -0.06555206 0 0 Z" stroke-linecap="round" />
</g>
<g transform="matrix(4.25 0 0 4.25 548.3 542.61)"  >
<path style="stroke: none; stroke-width: 1; stroke-dasharray: none; stroke-linecap: butt; stroke-dashoffset: 0; stroke-linejoin: miter; stroke-miterlimit: 4; fill: rgb(254,254,254); fill-rule: nonzero; opacity: 1;" vector-effect="non-scaling-stroke"  transform=" translate(-12.07, -15.99)" d="M 0 0 C 3.774375 -0.020625 7.54875 -0.04125 11.4375 -0.0625 C 12.62915771 -0.071604 13.82081543 -0.08070801 15.04858398 -0.09008789 C 16.44572632 -0.09383423 16.44572632 -0.09383423 17.87109375 -0.09765625 C 18.82943115 -0.10289307 19.78776855 -0.10812988 20.77514648 -0.11352539 C 23 0 23 0 24 1 C 24.10012401 3.20650656 24.1308118 5.41622386 24.1328125 7.625 C 24.13424759 8.61814209 24.13424759 8.61814209 24.13571167 9.63134766 C 24.13639326 11.03352961 24.13454042 12.4357147 24.13037109 13.83789062 C 24.12502246 15.99095713 24.1303167 18.14381502 24.13671875 20.296875 C 24.13605796 21.65625046 24.13477679 23.0156258 24.1328125 24.375 C 24.13168457 25.62023437 24.13055664 26.86546875 24.12939453 28.1484375 C 24 31 24 31 23 32 C 21.29227642 32.08713831 19.58101351 32.10700007 17.87109375 32.09765625 C 16.93966553 32.09515869 16.0082373 32.09266113 15.04858398 32.09008789 C 13.26109741 32.07643188 13.26109741 32.07643188 11.4375 32.0625 C 7.663125 32.041875 3.88875 32.02125 0 32 C 0 21.44 0 10.88 0 0 Z" stroke-linecap="round" />
</g>
<g transform="matrix(4.25 0 0 4.25 545.79 544.09)"  >
<path style="stroke: none; stroke-width: 1; stroke-dasharray: none; stroke-linecap: butt; stroke-dashoffset: 0; stroke-linejoin: miter; stroke-miterlimit: 4; fill: rgb(227,229,229); fill-rule: nonzero; opacity: 1;" vector-effect="non-scaling-stroke"  transform=" translate(-2.2, -20.53)" d="M 0 0 C 2.15506748 -0.00218641 4.30962258 -0.02036233 6.46459961 -0.03930664 C 7.84285308 -0.04224108 9.22110896 -0.04422554 10.59936523 -0.04516602 C 11.84645264 -0.0492749 13.09354004 -0.05338379 14.37841797 -0.05761719 C 17.83463025 0.19301551 21.17769275 0.634724 23.72827148 3.18530273 C 24.04077148 5.56030273 24.04077148 5.56030273 23.72827148 8.18530273 C 23.07366943 8.59828613 22.41906738 9.01126953 21.74462891 9.43676758 C 19.42402779 11.07855802 19.42402779 11.07855802 19.19824219 14.17211914 C 19.18365967 15.36498535 19.16907715 16.55785156 19.15405273 17.78686523 C 19.12633789 19.08108398 19.09862305 20.37530273 19.07006836 21.70874023 C 19.05942308 23.07592117 19.04966827 24.4431093 19.04077148 25.81030273 C 19.00260472 28.4901775 18.95352842 31.16965507 18.90405273 33.84936523 C 18.892854 35.03997559 18.88165527 36.23058594 18.87011719 37.45727539 C 18.72827148 40.18530273 18.72827148 40.18530273 17.72827148 41.18530273 C 15.44879357 41.28551203 13.16620014 41.31611577 10.88452148 41.31811523 C 10.20023071 41.31907196 9.51593994 41.32002869 8.81091309 41.3210144 C 7.36165271 41.32169603 5.9123893 41.31984296 4.46313477 41.31567383 C 2.23764221 41.31032526 0.01235148 41.31561933 -2.21313477 41.32202148 C -3.61808313 41.3213607 -5.02303137 41.32007953 -6.42797852 41.31811523 C -7.71510742 41.3169873 -9.00223633 41.31585938 -10.32836914 41.31469727 C -13.27172852 41.18530273 -13.27172852 41.18530273 -14.27172852 40.18530273 C -14.38143641 38.07536117 -14.42763799 35.96206359 -14.44750977 33.84936523 C -14.47135742 32.55772461 -14.49520508 31.26608398 -14.51977539 29.93530273 C -14.55489439 27.8723685 -14.58423034 25.81002293 -14.59765625 23.74682617 C -14.61312663 21.75995395 -14.65497067 19.77334226 -14.69750977 17.78686523 C -14.71209229 16.59399902 -14.7266748 15.40113281 -14.74169922 14.17211914 C -14.96815836 11.07940945 -14.96815836 11.07940945 -17.28417969 9.43286133 C -17.9400708 9.02116699 -18.59596191 8.60947266 -19.27172852 8.18530273 C -19.64672852 5.62280273 -19.64672852 5.62280273 -19.27172852 3.18530273 C -14.45090148 -1.6355243 -6.38633834 -0.00072696 0 0 Z M -9.27172852 4.18530273 C -9.27172852 14.74530273 -9.27172852 25.30530273 -9.27172852 36.18530273 C -5.49735352 36.20592773 -1.72297852 36.22655273 2.16577148 36.24780273 C 3.95325806 36.26145874 3.95325806 36.26145874 5.77685547 36.27539062 C 6.70828369 36.27788818 7.63971191 36.28038574 8.59936523 36.28295898 C 9.55770264 36.2881958 10.51604004 36.29343262 11.50341797 36.29882812 C 13.70112488 36.43583404 13.70112488 36.43583404 14.72827148 35.18530273 C 14.8283955 32.97879617 14.85908328 30.76907887 14.86108398 28.56030273 C 14.86204071 27.89820801 14.86299744 27.23611328 14.86398315 26.55395508 C 14.86466475 25.15177312 14.8628119 23.74958803 14.85864258 22.34741211 C 14.85329395 20.1943456 14.85858818 18.04148771 14.86499023 15.88842773 C 14.86432945 14.52905227 14.86304828 13.16967694 14.86108398 11.81030273 C 14.85995605 10.56506836 14.85882813 9.31983398 14.85766602 8.03686523 C 15.05399275 5.28624843 15.05399275 5.28624843 13.72827148 4.18530273 C 12.02054791 4.09816442 10.309285 4.07830266 8.59936523 4.08764648 C 7.2022229 4.09139282 7.2022229 4.09139282 5.77685547 4.09521484 C 4.58519775 4.10431885 3.39354004 4.11342285 2.16577148 4.12280273 C -1.60860352 4.14342773 -5.38297852 4.16405273 -9.27172852 4.18530273 Z" stroke-linecap="round" />
</g>
</svg>