<?xml version="1.0" encoding="UTF-8" standalone="no" ?>
<!DOCTYPE svg PUBLIC "-//W3C//DTD SVG 1.1//EN" "http://www.w3.org/Graphics/SVG/1.1/DTD/svg11.dtd">
<svg xmlns="http://www.w3.org/2000/svg" xmlns:xlink="http://www.w3.org/1999/xlink" version="1.1" width="1080" height="1080" viewBox="0 0 1080 1080" xml:space="preserve">
<desc>Created with Fabric.js 5.2.4</desc>
<defs>
</defs>
<rect x="0" y="0" width="100%" height="100%" fill="transparent"></rect>
<g transform="matrix(1 0 0 1 540 540)" id="f5b71f97-a669-4445-a9de-2637fbbf46cb"  >
<rect style="stroke: none; stroke-width: 1; stroke-dasharray: none; stroke-linecap: butt; stroke-dashoffset: 0; stroke-linejoin: miter; stroke-miterlimit: 4; fill: rgb(255,255,255); fill-rule: nonzero; opacity: 1; visibility: hidden;" vector-effect="non-scaling-stroke"  x="-540" y="-540" rx="0" ry="0" width="1080" height="1080" />
</g>
<g transform="matrix(1 0 0 1 540 540)" id="8e4d86f3-8856-4df4-b1c3-9de0cedf2860"  >
</g>
<g transform="matrix(4.09 0 0 4.09 540.29 542.15)"  >
<path style="stroke: none; stroke-width: 1; stroke-dasharray: none; stroke-linecap: butt; stroke-dashoffset: 0; stroke-linejoin: miter; stroke-miterlimit: 4; fill: rgb(226,228,228); fill-rule: nonzero; opacity: 1;" vector-effect="non-scaling-stroke"  transform=" translate(-15.17, -45.42)" d="M 0 0 C 1.78429916 -0.00642769 1.78429916 -0.00642769 3.60464478 -0.01298523 C 6.11435308 -0.01871384 8.62407798 -0.01923965 11.13378906 -0.01489258 C 14.95667085 -0.01173518 18.77877639 -0.03520271 22.6015625 -0.06054688 C 25.04687403 -0.06282038 27.49218763 -0.06352313 29.9375 -0.0625 C 31.07214691 -0.07170975 32.20679382 -0.08091949 33.37582397 -0.09040833 C 40.7915005 -0.04755456 47.95334973 0.38951964 53.94140625 5.16796875 C 54.46863281 5.83054687 54.99585938 6.493125 55.5390625 7.17578125 C 56.08433594 7.83320312 56.62960938 8.490625 57.19140625 9.16796875 C 59.99378214 13.40646525 60.85532603 17.07504185 60.92382812 22.12573242 C 60.94304321 23.27430222 60.9622583 24.42287201 60.98205566 25.60624695 C 60.99055542 26.83962296 60.99905518 28.07299896 61.0078125 29.34375 C 61.01921265 30.62252518 61.03061279 31.90130035 61.0423584 33.21882629 C 61.06332276 35.92462745 61.07504299 38.63031081 61.08203125 41.33618164 C 61.0929652 44.77835082 61.1409589 48.21892332 61.19797516 51.66059399 C 61.24453889 54.97161022 61.24814769 58.28242389 61.2578125 61.59375 C 61.2825061 62.81700485 61.30719971 64.0402597 61.3326416 65.30058289 C 61.29147411 73.28641969 60.15981563 79.30701722 54.6015625 85.30078125 C 47.47511103 90.96373374 39.72842222 91.01259489 30.96484375 90.89453125 C 29.68602829 90.89457153 28.40721283 90.89461182 27.08964539 90.89465332 C 24.40027912 90.88931571 21.71313391 90.87452886 19.02416992 90.84277344 C 15.59457503 90.80297748 12.16607698 90.79874917 8.73629475 90.80623627 C 5.43738633 90.81005772 2.13868328 90.78921532 -1.16015625 90.76953125 C -2.38320969 90.76932983 -3.60626312 90.76912842 -4.86637878 90.7689209 C -12.69693397 90.66042499 -18.11197002 90.21378651 -24.1484375 84.86328125 C -28.67034787 79.71332777 -30.50489265 76.53474671 -30.59130859 69.5793457 C -30.60737152 68.40414871 -30.62343445 67.22895172 -30.63998413 66.0181427 C -30.68449859 60.63847397 -30.72594332 55.25895062 -30.74853516 49.87915039 C -30.76184829 47.04385934 -30.78965341 44.2092925 -30.83056641 41.37426758 C -30.88959403 37.2832437 -30.90722348 33.19299036 -30.921875 29.1015625 C -30.94454437 27.83983719 -30.96721375 26.57811188 -30.99057007 25.27815247 C -30.97060307 16.93445253 -29.6834943 11.90360578 -23.99081421 5.78877258 C -17.12898361 -0.58492517 -8.7857405 -0.00703207 0 0 Z" stroke-linecap="round" />
</g>
<g transform="matrix(4.09 0 0 4.09 507.22 553.7)"  >
<path style="stroke: none; stroke-width: 1; stroke-dasharray: none; stroke-linecap: butt; stroke-dashoffset: 0; stroke-linejoin: miter; stroke-miterlimit: 4; fill: rgb(253,254,254); fill-rule: nonzero; opacity: 1;" vector-effect="non-scaling-stroke"  transform=" translate(-8.98, -31.06)" d="M 0 0 C 2.5 0.125 2.5 0.125 3.5 1.125 C 3.57319621 3.82154854 3.59242537 6.49191458 3.5625 9.1875 C 3.55798828 9.94611328 3.55347656 10.70472656 3.54882812 11.48632812 C 3.5370068 13.36591871 3.51907078 15.24546899 3.5 17.125 C 4.16 17.125 4.82 17.125 5.5 17.125 C 5.48839844 15.98160156 5.47679687 14.83820313 5.46484375 13.66015625 C 5.45546712 12.16927246 5.44636679 10.67838691 5.4375 9.1875 C 5.42912109 8.43275391 5.42074219 7.67800781 5.41210938 6.90039062 C 5.40347559 4.97505687 5.44775667 3.04964419 5.5 1.125 C 6.5 0.125 6.5 0.125 9 0 C 11.5 0.125 11.5 0.125 12.5 1.125 C 12.57319621 3.82154854 12.59242537 6.49191458 12.5625 9.1875 C 12.55798828 9.94611328 12.55347656 10.70472656 12.54882812 11.48632812 C 12.5370068 13.36591871 12.51907078 15.24546899 12.5 17.125 C 13.16 16.795 13.82 16.465 14.5 16.125 C 14.81241455 13.41053021 15.01336592 10.78590639 15.125 8.0625 C 15.16367188 7.30388672 15.20234375 6.54527344 15.2421875 5.76367188 C 15.33673562 3.88452805 15.41946756 2.00479664 15.5 0.125 C 17.48 0.125 19.46 0.125 21.5 0.125 C 21.61654436 3.6872231 21.6873639 7.24895342 21.75 10.8125 C 21.80027344 12.32360352 21.80027344 12.32360352 21.8515625 13.86523438 C 21.95022732 21.33909435 21.95022732 21.33909435 19.734375 25.20703125 C 17.5 27.125 17.5 27.125 13.5 29.125 C 13.17 40.015 12.84 50.905 12.5 62.125 C 10.52 62.125 8.54 62.125 6.5 62.125 C 5.5 61.125 5.5 61.125 5.38647461 57.98217773 C 5.38663367 56.59097303 5.39232494 55.19976239 5.40234375 53.80859375 C 5.4037587 53.07753922 5.40517365 52.34648468 5.40663147 51.59327698 C 5.41224592 49.24964368 5.42480078 46.90610461 5.4375 44.5625 C 5.44251314 42.97721492 5.44707637 41.39192834 5.45117188 39.80664062 C 5.46222003 35.9127239 5.47949428 32.01887795 5.5 28.125 C 4.72229248 27.99899414 3.94458496 27.87298828 3.14331055 27.74316406 C 0.5 27.125 0.5 27.125 -1.79296875 25.234375 C -4.31037892 20.64888646 -3.9685433 16.51402607 -3.8125 11.375 C -3.80283203 10.40433594 -3.79316406 9.43367188 -3.78320312 8.43359375 C -3.65049362 0.18252468 -3.65049362 0.18252468 0 0 Z" stroke-linecap="round" />
</g>
<g transform="matrix(4.09 0 0 4.09 609.94 553.95)"  >
<path style="stroke: none; stroke-width: 1; stroke-dasharray: none; stroke-linecap: butt; stroke-dashoffset: 0; stroke-linejoin: miter; stroke-miterlimit: 4; fill: rgb(253,254,254); fill-rule: nonzero; opacity: 1;" vector-effect="non-scaling-stroke"  transform=" translate(-6.6, -31)" d="M 0 0 C 5 1 5 1 6.73046875 3.0390625 C 7.21128906 3.89242187 7.69210938 4.74578125 8.1875 5.625 C 8.67605469 6.46289062 9.16460937 7.30078125 9.66796875 8.1640625 C 13.00799123 15.27507811 13.28325078 21.66454257 13.1875 29.375 C 13.18685547 30.38433594 13.18621094 31.39367187 13.18554688 32.43359375 C 13.14057211 39.85942789 13.14057211 39.85942789 12 41 C 10.33382885 41.04063832 8.66611905 41.042721 7 41 C 7.00523682 41.60062256 7.01047363 42.20124512 7.01586914 42.82006836 C 7.03658014 45.52586838 7.04964125 48.23165177 7.0625 50.9375 C 7.07087891 51.88302734 7.07925781 52.82855469 7.08789062 53.80273438 C 7.09111328 54.70185547 7.09433594 55.60097656 7.09765625 56.52734375 C 7.10289307 57.35999756 7.10812988 58.19265137 7.11352539 59.05053711 C 7 61 7 61 6 62 C 4.02 62 2.04 62 0 62 C 0 41.54 0 21.08 0 0 Z" stroke-linecap="round" />
</g>
</svg>