<?xml version="1.0" encoding="UTF-8" standalone="no"?>
<svg
   xmlns:dc="http://purl.org/dc/elements/1.1/"
   xmlns:cc="http://creativecommons.org/ns#"
   xmlns:rdf="http://www.w3.org/1999/02/22-rdf-syntax-ns#"
   xmlns:svg="http://www.w3.org/2000/svg"
   xmlns="http://www.w3.org/2000/svg"
   viewBox="0 0 2933.3333 1333.3333"
   height="1333.3333"
   width="2933.3333"
   xml:space="preserve"
   id="svg2"
   version="1.1"><metadata
     id="metadata8"><rdf:RDF><cc:Work
         rdf:about=""><dc:format>image/svg+xml</dc:format><dc:type
           rdf:resource="http://purl.org/dc/dcmitype/StillImage" /></cc:Work></rdf:RDF></metadata><defs
     id="defs6"><linearGradient
       id="linearGradient30"
       spreadMethod="pad"
       gradientTransform="matrix(16.27194,0,0,-16.27194,1106.2434,545.10919)"
       gradientUnits="userSpaceOnUse"
       y2="0"
       x2="1"
       y1="0"
       x1="0"><stop
         id="stop24"
         offset="0"
         style="stop-opacity:1;stop-color:#f26f61" /><stop
         id="stop26"
         offset="0.00302484"
         style="stop-opacity:1;stop-color:#f26f61" /><stop
         id="stop28"
         offset="1"
         style="stop-opacity:1;stop-color:#f58e58" /></linearGradient></defs><g
     transform="matrix(1.3333333,0,0,-1.3333333,0,1333.3333)"
     id="g10"><g
       id="g12"><g
         id="g14"><g
           id="g20"><g
             id="g22"><path
               id="path32"
               style="fill:url(#linearGradient30);stroke:none"
               d="m 1107.553,551.185 c -0.632,-0.594 -1.07,-1.315 -1.241,-2.18 v 0 c -0.016,-0.088 -0.031,-0.178 -0.047,-0.267 v 0 c 0,-0.003 -0.01,-0.007 -0.01,-0.006 v 0 c 0,0.002 -0.01,0.007 -0.014,0.011 v 0 -1.098 c 0.044,0.016 0.035,-0.022 0.037,-0.041 v 0 c 0.095,-0.786 0.412,-1.495 0.769,-2.19 v 0 c 0.021,-0.039 0.045,-0.051 0.088,-0.051 v 0 c 0.854,0.005 1.709,0.009 2.562,0.012 v 0 c 0.058,0 0.076,0.031 0.097,0.072 v 0 c 0.277,0.533 0.555,1.069 0.835,1.602 v 0 c 0.268,0.509 0.537,1.017 0.809,1.524 v 0 c 0.155,0.293 0.46,0.431 0.797,0.365 v 0 c 0.336,-0.066 0.558,-0.296 0.592,-0.633 v 0 c 0.093,-0.893 0.18,-1.786 0.271,-2.679 v 0 c 0.046,-0.458 0.095,-0.917 0.142,-1.375 v 0 c 0,-0.043 0.017,-0.085 0.026,-0.129 v 0 c 0.044,0.005 0.045,0.041 0.058,0.065 v 0 c 0.126,0.232 0.248,0.466 0.377,0.696 v 0 c 0.123,0.218 0.288,0.39 0.553,0.418 v 0 c 0.168,0.017 0.337,0.021 0.507,0.021 v 0 c 0.403,0 0.806,-10e-4 1.208,-0.002 v 0 c 0.605,-0.001 1.209,-0.002 1.813,10e-4 v 0 c 0.515,0.002 1.029,-0.008 1.545,-0.016 v 0 c 0.203,-0.002 0.405,-0.005 0.581,-0.141 v 0 c 0.234,-0.183 0.314,-0.427 0.28,-0.71 v 0 c -0.034,-0.291 -0.203,-0.494 -0.473,-0.596 v 0 c -0.131,-0.048 -0.271,-0.045 -0.409,-0.041 v 0 c -0.038,10e-4 -0.078,0.002 -0.116,0.002 v 0 c -1.413,-0.008 -2.826,-0.016 -4.24,-0.018 v 0 c -0.087,-0.001 -0.129,-0.029 -0.168,-0.107 v 0 c -0.441,-0.863 -0.873,-1.734 -1.344,-2.583 v 0 c -0.113,-0.207 -0.252,-0.374 -0.496,-0.429 v 0 c -0.471,-0.103 -0.86,0.161 -0.925,0.637 v 0 c -0.087,0.648 -0.138,1.301 -0.204,1.951 v 0 c -0.074,0.745 -0.149,1.49 -0.224,2.235 v 0 c -10e-4,0.005 -0.01,0.009 -0.015,0.02 v 0 c -0.043,-0.034 -0.063,-0.085 -0.088,-0.13 v 0 c -0.19,-0.351 -0.377,-0.704 -0.569,-1.054 v 0 c -0.066,-0.122 -0.145,-0.237 -0.253,-0.328 v 0 c -0.096,-0.082 -0.206,-0.125 -0.333,-0.131 v 0 c -0.468,-0.025 -0.936,-0.023 -1.405,-0.02 v 0 c -0.25,0.001 -0.501,0.003 -0.75,0 v 0 c -0.037,-10e-4 -0.073,0 -0.134,0 v 0 c 0.157,-0.203 0.297,-0.393 0.446,-0.576 v 0 c 1.26,-1.557 2.658,-2.976 4.258,-4.189 v 0 c 0.443,-0.335 0.908,-0.637 1.419,-0.865 v 0 c 0.091,-0.039 0.164,-0.046 0.256,0 v 0 c 0.759,0.383 1.454,0.864 2.133,1.371 v 0 c 1.308,0.977 2.499,2.083 3.572,3.312 v 0 c 0.823,0.944 1.517,1.976 1.983,3.148 v 0 c 0.179,0.448 0.311,0.908 0.366,1.389 v 0 c 0,0.02 0.01,0.038 0.017,0.058 v 0 c 0,10e-4 0.01,0.006 0.01,0.006 v 0 c 0.01,-0.005 0.01,-0.009 0.015,-0.013 v 0 1.037 c -0.058,-0.006 -0.036,0.042 -0.039,0.064 v 0 c -0.138,1.033 -0.611,1.894 -1.373,2.591 v 0 c -0.606,0.553 -1.34,0.789 -2.156,0.769 v 0 c -1.297,-0.033 -2.394,-0.561 -3.369,-1.384 v 0 c -0.421,-0.355 -0.796,-0.755 -1.118,-1.202 v 0 c -0.02,-0.027 -0.042,-0.053 -0.068,-0.087 v 0 c -0.1,0.11 -0.196,0.217 -0.294,0.322 v 0 c -0.522,0.569 -1.088,1.09 -1.738,1.508 v 0 c -0.629,0.406 -1.299,0.727 -2.05,0.845 v 0 c -0.217,0.035 -0.429,0.053 -0.637,0.053 v 0 c -0.787,-10e-4 -1.505,-0.256 -2.121,-0.834" /></g></g></g></g></g></svg>