<?xml version="1.0" encoding="UTF-8"?>
<svg version="1.1" xmlns="http://www.w3.org/2000/svg" width="512" height="512">
<path d="M0 0 C0.74604492 0.19787109 1.49208984 0.39574219 2.26074219 0.59960938 C30.63101791 8.38160245 54.55381981 23.08314941 76 43 C76.96486328 43.86625 76.96486328 43.86625 77.94921875 44.75 C104.82388593 69.99077756 123.56035902 110.88825744 125.16113281 147.70605469 C125.54077458 183.56012954 125.54077458 183.56012954 122 198 C121.70198486 199.24595947 121.70198486 199.24595947 121.39794922 200.51708984 C115.68670751 223.74280611 105.15257101 244.15870544 91.78515625 263.84765625 C88.51056815 268.69129309 85.38099712 273.62527465 82.25 278.5625 C81.65743408 279.49658691 81.06486816 280.43067383 80.4543457 281.39306641 C79.24062286 283.30751037 78.02732847 285.22222603 76.81445312 287.13720703 C73.88298628 291.76239275 70.94109603 296.38093389 68 301 C66.85150971 302.8046539 65.70307248 304.60934158 64.5546875 306.4140625 C58.703125 315.609375 52.8515625 324.8046875 47 334 C47.84530273 334.10812012 48.69060547 334.21624023 49.56152344 334.32763672 C58.25005221 335.49591261 66.71508362 337.10911027 75.25 339.125 C75.89041229 339.27584045 76.53082458 339.42668091 77.19064331 339.58209229 C111.4245631 347.69005653 158.01367551 359.84289881 178 392 C185.009803 404.55516248 186.81237823 416.24736674 184.41796875 430.453125 C178.48763423 450.70833149 160.43994983 463.56617905 142.92358398 473.44873047 C110.35162541 491.03573215 72.90313929 498.69687931 36.5625 503.8125 C35.8688736 503.91177795 35.17524719 504.01105591 34.46060181 504.11334229 C10.62560564 507.47725661 -13.24887844 508.38030357 -37.29134369 508.31785583 C-39.47200188 508.3124139 -41.65264921 508.31004783 -43.83331299 508.3079834 C-65.35210413 508.27624717 -86.63297627 507.7347222 -108 505 C-109.81395264 504.7831958 -109.81395264 504.7831958 -111.66455078 504.56201172 C-153.87618897 499.46546014 -203.10154397 490.11071168 -238 464 C-239.41345703 462.95392578 -239.41345703 462.95392578 -240.85546875 461.88671875 C-252.3564052 452.95564672 -261.8727277 441.58139866 -265 427 C-266.53847038 409.41050899 -262.73536516 397.14372317 -251.4375 383.5625 C-221.9512449 351.51222272 -171.22042923 340.89984616 -130 334 C-129.01 334 -128.02 334 -127 334 C-134.45044725 322.18299025 -141.9275293 310.38332419 -149.43359375 298.6015625 C-151.78427241 294.91158098 -154.1304826 291.21882297 -156.47265625 287.5234375 C-157.62751931 285.70307117 -158.78246727 283.88275868 -159.9375 282.0625 C-160.50936035 281.15999512 -161.0812207 280.25749023 -161.67041016 279.32763672 C-164.68934592 274.57781071 -167.74551076 269.85750554 -170.86328125 265.171875 C-197.39882382 225.25058847 -212.51205359 180.23219325 -203.3125 131.875 C-202.62366532 128.55963559 -201.84252354 125.27938198 -201 122 C-200.81276367 121.24138672 -200.62552734 120.48277344 -200.43261719 119.70117188 C-197.73737862 108.98538744 -193.80840487 98.93603994 -189 89 C-188.69191406 88.36320312 -188.38382812 87.72640625 -188.06640625 87.0703125 C-168.1286888 46.53304465 -132.24786332 17.50363152 -89.96459961 2.80712891 C-86.6761938 1.73589621 -83.35203821 0.84787304 -80 0 C-78.88890869 -0.29197266 -78.88890869 -0.29197266 -77.75537109 -0.58984375 C-53.18833135 -6.78857734 -24.4595581 -6.50442289 0 0 Z M-72 30 C-73.21792236 30.33862061 -73.21792236 30.33862061 -74.46044922 30.68408203 C-110.73652947 41.13240153 -140.16130068 64.56268067 -158.65332031 97.55786133 C-165.94216694 111.02848684 -170.19799343 124.99570677 -173 140 C-173.1757959 140.93062256 -173.3515918 141.86124512 -173.53271484 142.82006836 C-175.89347059 158.88529489 -175.37665349 178.35860413 -171 194 C-170.66935547 195.19979492 -170.66935547 195.19979492 -170.33203125 196.42382812 C-165.27807625 214.16615165 -157.17231127 229.80629909 -146.75 244.953125 C-143.46171267 249.74532021 -140.35977919 254.65331402 -137.25 259.5625 C-136.65590332 260.49900391 -136.06180664 261.43550781 -135.44970703 262.40039062 C-134.23451933 264.31673607 -133.01984152 266.23340494 -131.80566406 268.15039062 C-128.9177216 272.70799803 -126.02165973 277.2604297 -123.125 281.8125 C-122.26696777 283.16130249 -122.26696777 283.16130249 -121.39160156 284.53735352 C-116.93954194 291.53247608 -112.47181101 298.51749144 -108 305.5 C-101.21971821 316.08706986 -94.46257897 326.68864146 -87.71777344 337.29833984 C-84.81326436 341.86646057 -81.90650771 346.43315077 -79 351 C-77.8333228 352.83332663 -76.66665613 354.66665996 -75.5 356.5 C-74.9225 357.4075 -74.345 358.315 -73.75 359.25 C-72 362 -70.25 364.75 -68.5 367.5 C-67.92161377 368.40886963 -67.34322754 369.31773926 -66.74731445 370.25415039 C-65.58951523 372.07359539 -64.43179934 373.89309344 -63.27416992 375.71264648 C-60.22253945 380.50892651 -57.16914398 385.30407143 -54.11328125 390.09765625 C-53.47712891 391.09603516 -52.84097656 392.09441406 -52.18554688 393.12304688 C-50.96733093 395.03484562 -49.74860824 396.94632159 -48.52929688 398.85742188 C-47.70461914 400.15196289 -47.70461914 400.15196289 -46.86328125 401.47265625 C-46.38157471 402.22812744 -45.89986816 402.98359863 -45.40356445 403.76196289 C-44.37154626 405.40755531 -43.3930337 407.08700846 -42.44604492 408.78295898 C-41.9688501 409.51458252 -41.49165527 410.24620605 -41 411 C-40.34 411 -39.68 411 -39 411 C-37.54586502 409.11348144 -37.54586502 409.11348144 -36.0859375 406.62890625 C-35.49820557 405.67508057 -34.91047363 404.72125488 -34.30493164 403.73852539 C-33.34961548 402.16639282 -33.34961548 402.16639282 -32.375 400.5625 C-31.00775591 398.34298228 -29.63922642 396.12425596 -28.26953125 393.90625 C-27.74059517 393.04731895 -27.74059517 393.04731895 -27.20097351 392.17103577 C-23.55573746 386.25819399 -19.81650239 380.40679918 -16.0625 374.5625 C-15.40121094 373.53157227 -14.73992187 372.50064453 -14.05859375 371.43847656 C-12.71445846 369.34347501 -11.36989436 367.24874851 -10.02490234 365.15429688 C-6.63693674 359.87668467 -3.25581644 354.59469381 0.125 349.3125 C0.78862549 348.27577148 1.45225098 347.23904297 2.13598633 346.17089844 C8.7766929 335.79290947 15.3904124 325.39782552 22 315 C29.98911625 302.43197883 37.99474751 289.8748463 46.02758789 277.3347168 C51.05387585 269.48567039 56.06651997 261.6280378 61.05151367 253.75268555 C63.65703928 249.64384245 66.28160232 245.55476547 69 241.51953125 C85.32436159 217.2088498 94.41545289 191.40559103 94.375 161.9375 C94.37445618 161.26257507 94.37391235 160.58765015 94.37335205 159.89227295 C94.2437701 124.72580451 80.2002565 94.01865803 57 68 C56.05060547 66.92298828 56.05060547 66.92298828 55.08203125 65.82421875 C34.18747839 43.54592067 1.72386646 28.53987134 -28.58447266 26.79345703 C-32.30891361 26.69729421 -36.02437158 26.67052512 -39.75 26.6875 C-40.4074118 26.68998749 -41.06482361 26.69247498 -41.74215698 26.69503784 C-52.14224502 26.75572617 -61.95096566 27.200443 -72 30 Z M-229.6640625 406.39453125 C-233.2911301 410.75337564 -234.76861397 414.95792581 -234.5234375 420.578125 C-232.53567844 429.77521918 -224.23793285 436.0186351 -216.76464844 440.89111328 C-183.22084146 461.96969259 -142.1115457 469.68262176 -103.3125 474.25 C-102.60696991 474.33317474 -101.90143982 474.41634949 -101.17453003 474.50204468 C-86.71074952 476.18346682 -72.29731509 477.15040587 -57.73046875 477.203125 C-56.42265945 477.21013931 -55.11485016 477.21715363 -53.76741028 477.22438049 C-49.57410178 477.24375372 -45.38084876 477.2488142 -41.1875 477.25 C-40.47259399 477.25044186 -39.75768799 477.25088371 -39.02111816 477.25133896 C-17.21152236 477.25840541 4.35269585 476.94478522 26 474 C27.35561973 473.82119975 28.71125159 473.64249138 30.06689453 473.46386719 C47.96129473 471.06988697 65.56278884 467.7133347 83 463 C83.89106445 462.76168457 84.78212891 462.52336914 85.70019531 462.27783203 C108.01055436 456.22002489 133.14042084 447.62175462 149 430 C149.46535156 429.48953125 149.93070312 428.9790625 150.41015625 428.453125 C153.67809784 424.48426001 154.75028426 421.34565379 154.41015625 416.19140625 C152.82230984 407.70776971 145.59162799 401.63478501 138.96484375 396.7734375 C111.04720789 377.70713388 62.09872216 359.31968471 28 363 C25.98783722 364.80167865 25.98783722 364.80167865 24.53515625 367.359375 C23.6536792 368.73512695 23.6536792 368.73512695 22.75439453 370.13867188 C22.17544434 371.08291016 21.59649414 372.02714844 21 373 C19.91643921 374.67257168 18.83182439 376.34446104 17.74609375 378.015625 C16.64092243 379.75895647 15.53814019 381.5038043 14.4375 383.25 C13.2070932 385.19274757 11.97662265 387.13545477 10.74609375 389.078125 C10.12460449 390.06103516 9.50311523 391.04394531 8.86279297 392.05664062 C5.91763339 396.71022435 2.95851219 401.35489831 0 406 C-3.57475389 411.6143806 -7.14700971 417.23030186 -10.7109375 422.8515625 C-14.12945911 428.24154309 -17.56029636 433.62351627 -21 439 C-21.65452148 440.02697998 -21.65452148 440.02697998 -22.32226562 441.07470703 C-23.41510035 442.78416168 -24.51947724 444.48622332 -25.625 446.1875 C-26.47964844 447.50814453 -26.47964844 447.50814453 -27.3515625 448.85546875 C-29.8551656 452.11252587 -32.11225438 453.70408479 -36 455 C-41.77637741 455.37877885 -44.90118475 455.03916225 -50 452 C-55.96833348 445.67284888 -60.24923986 437.44961429 -64.72802734 430.0300293 C-67.83782573 424.87839576 -71.02659834 419.79102907 -74.3125 414.75 C-78.54445799 408.25683009 -82.72312478 401.7321845 -86.875 395.1875 C-91.65257069 387.66467793 -96.46069663 380.16268577 -101.3125 372.6875 C-101.8698584 371.82729248 -102.4272168 370.96708496 -103.00146484 370.08081055 C-103.51273926 369.29488525 -104.02401367 368.50895996 -104.55078125 367.69921875 C-105.22620972 366.66027466 -105.22620972 366.66027466 -105.9152832 365.6003418 C-106.90440122 364.03273576 -106.90440122 364.03273576 -108 363 C-145.72078222 361.38124388 -203.41881324 378.4209363 -229.6640625 406.39453125 Z " fill="#000000" transform="translate(296,4)"/>
<path d="M0 0 C3.66944815 3.00099539 6.96937735 6.29600157 10.25927734 9.70410156 C10.99662109 10.41050781 11.73396484 11.11691406 12.49365234 11.84472656 C25.43648307 24.98822133 30.58144102 43.74263241 30.75927734 61.70410156 C30.56206263 81.62278718 24.23758205 99.91986952 9.96240234 114.09472656 C9.07037109 114.95582031 8.17833984 115.81691406 7.25927734 116.70410156 C6.55287109 117.44144531 5.84646484 118.17878906 5.11865234 118.93847656 C-8.02484243 131.88130729 -26.77925351 137.02626523 -44.74072266 137.20410156 C-64.65940827 137.00688685 -82.95649061 130.68240626 -97.13134766 116.40722656 C-97.99244141 115.51519531 -98.85353516 114.62316406 -99.74072266 113.70410156 C-100.47806641 112.99769531 -101.21541016 112.29128906 -101.97509766 111.56347656 C-114.91792839 98.41998179 -120.06288633 79.66557071 -120.24072266 61.70410156 C-120.04350795 41.78541595 -113.71902736 23.48833361 -99.44384766 9.31347656 C-98.55181641 8.45238281 -97.65978516 7.59128906 -96.74072266 6.70410156 C-96.03431641 5.96675781 -95.32791016 5.22941406 -94.60009766 4.46972656 C-70.40433808 -19.35663211 -26.63378874 -19.82779112 0 0 Z M-75.74072266 29.70410156 C-76.37751953 30.29964844 -77.01431641 30.89519531 -77.67041016 31.50878906 C-86.15777968 40.28757041 -89.0770134 51.64631753 -89.12573242 63.51831055 C-88.91394838 75.031349 -84.57538509 84.3449429 -76.74072266 92.70410156 C-75.84740234 93.65929687 -75.84740234 93.65929687 -74.93603516 94.63378906 C-66.1572538 103.12115858 -54.79850669 106.04039231 -42.92651367 106.08911133 C-31.41347522 105.87732729 -22.09988132 101.538764 -13.74072266 93.70410156 C-12.78552734 92.81078125 -12.78552734 92.81078125 -11.81103516 91.89941406 C-3.32366563 83.12063271 -0.40443191 71.76188559 -0.35571289 59.88989258 C-0.56749693 48.37685412 -4.90606022 39.06326023 -12.74072266 30.70410156 C-13.63404297 29.74890625 -13.63404297 29.74890625 -14.54541016 28.77441406 C-23.32419151 20.28704454 -34.68293863 17.36781082 -46.55493164 17.3190918 C-58.0679701 17.53087584 -67.38156399 21.86943913 -75.74072266 29.70410156 Z " fill="#000000" transform="translate(300.74072265625,104.2958984375)"/>
</svg>
