<?xml version="1.0" encoding="UTF-8" standalone="no" ?>
<!DOCTYPE svg PUBLIC "-//W3C//DTD SVG 1.1//EN" "http://www.w3.org/Graphics/SVG/1.1/DTD/svg11.dtd">
<svg xmlns="http://www.w3.org/2000/svg" xmlns:xlink="http://www.w3.org/1999/xlink" version="1.1" width="1080" height="1080" viewBox="0 0 1080 1080" xml:space="preserve">
<desc>Created with Fabric.js 5.2.4</desc>
<defs>
</defs>
<rect x="0" y="0" width="100%" height="100%" fill="transparent"></rect>
<g transform="matrix(1 0 0 1 540 540)" id="f5b71f97-a669-4445-a9de-2637fbbf46cb"  >
<rect style="stroke: none; stroke-width: 1; stroke-dasharray: none; stroke-linecap: butt; stroke-dashoffset: 0; stroke-linejoin: miter; stroke-miterlimit: 4; fill: rgb(255,255,255); fill-rule: nonzero; opacity: 1; visibility: hidden;" vector-effect="non-scaling-stroke"  x="-540" y="-540" rx="0" ry="0" width="1080" height="1080" />
</g>
<g transform="matrix(1 0 0 1 540 540)" id="8e4d86f3-8856-4df4-b1c3-9de0cedf2860"  >
</g>
<g transform="matrix(3.97 0 0 3.97 540 540)"  >
<path style="stroke: none; stroke-width: 1; stroke-dasharray: none; stroke-linecap: butt; stroke-dashoffset: 0; stroke-linejoin: miter; stroke-miterlimit: 4; fill: rgb(243,122,96); fill-rule: nonzero; opacity: 1;" vector-effect="non-scaling-stroke"  transform=" translate(-16.78, -45.45)" d="M 0 0 C 1.33703899 -0.00270055 2.67407606 -0.00658763 4.0111084 -0.01159668 C 6.80170548 -0.01746548 9.59178744 -0.0090149 12.38232422 0.00976562 C 15.93978641 0.03255487 19.49604116 0.01941746 23.05345917 -0.00452423 C 25.81094277 -0.01905417 28.56814524 -0.01434371 31.32563782 -0.00401306 C 33.26865432 -0.00008856 35.21168224 -0.01212822 37.15466309 -0.02453613 C 44.74407603 0.05555174 50.91872922 0.47506842 56.66809082 5.97839355 C 60.81479483 10.70215299 62.39947706 14.22022875 62.46264648 20.45800781 C 62.47863388 21.65315002 62.49462128 22.84829224 62.51109314 24.07965088 C 62.51645584 25.36820984 62.52181854 26.6567688 62.52734375 27.984375 C 62.53631795 29.32712907 62.54543994 30.66988216 62.55470276 32.01263428 C 62.57117793 34.82696964 62.5788897 37.64118628 62.58178711 40.45556641 C 62.58715885 44.04459803 62.62479237 47.63249763 62.67053127 51.22121048 C 62.70042734 53.99580855 62.7075134 56.77013867 62.70851326 59.54488373 C 62.71471362 61.50572197 62.74412507 63.46644303 62.77403259 65.42706299 C 62.73166344 73.8465551 61.4323771 78.82128534 55.78416443 85.0425415 C 49.02429946 91.44242553 39.78853067 90.83929958 31.09765625 90.83203125 C 29.38206764 90.83845894 29.38206764 90.83845894 27.63182068 90.84501648 C 25.22224589 90.85073842 22.81265383 90.85127586 20.40307617 90.84692383 C 16.73391031 90.84376306 13.06555082 90.86725387 9.39648438 90.89257812 C 7.04687601 90.89485137 4.69726549 90.8955545 2.34765625 90.89453125 C 1.25989395 90.903741 0.17213165 90.91295074 -0.94859314 90.92243958 C -10.45494994 90.86520665 -17.98907527 89.38592473 -24.84375 82.53125 C -28.25265987 77.71175673 -28.96440798 73.78045515 -29.00488281 67.95581055 C -29.01449036 66.83752365 -29.0240979 65.71923676 -29.03399658 64.56706238 C -29.03824646 63.36286148 -29.04249634 62.15866058 -29.046875 60.91796875 C -29.05257507 59.67505569 -29.05827515 58.43214264 -29.06414795 57.15156555 C -29.07359402 54.52138113 -29.08013037 51.89118489 -29.08398438 49.26098633 C -29.08837408 46.57139554 -29.10228658 43.88212465 -29.125 41.19262695 C -29.1554929 37.30930868 -29.16603585 33.42639348 -29.171875 29.54296875 C -29.1842218 28.34484055 -29.1965686 27.14671234 -29.20928955 25.91227722 C -29.18640679 17.31346545 -28.17490766 10.86240766 -21.84375 4.53125 C -14.68964984 -0.07481449 -8.3619792 -0.05339977 0 0 Z" stroke-linecap="round" />
</g>
<g transform="matrix(3.97 0 0 3.97 543.45 579.88)"  >
<path style="stroke: none; stroke-width: 1; stroke-dasharray: none; stroke-linecap: butt; stroke-dashoffset: 0; stroke-linejoin: miter; stroke-miterlimit: 4; fill: rgb(252,249,249); fill-rule: nonzero; opacity: 1;" vector-effect="non-scaling-stroke"  transform=" translate(18.25, -11.46)" d="M 0 0 C 1.11375 0.7425 1.11375 0.7425 2.25 1.5 C 3.61125 2.3971875 3.61125 2.3971875 5 3.3125 C 7.75579204 5.99174226 7.99317902 7.73329225 8.25 11.5 C 9.57 11.5 10.89 11.5 12.25 11.5 C 10.50684402 17.94967714 7.66092156 22.24664381 4.25 28.5 C -10.93 28.5 -26.11 28.5 -41.75 28.5 C -48.75 14.5 -48.75 14.5 -48.75 12.5 C -47.326875 12.1596875 -47.326875 12.1596875 -45.875 11.8125 C -42.59271635 10.86413861 -42.59271635 10.86413861 -41.8125 8.25 C -41.461875 7.3425 -41.11125 6.435 -40.75 5.5 C -27.98553042 -7.79910705 -15.57455317 -8.49521082 0 0 Z" stroke-linecap="round" />
</g>
<g transform="matrix(3.97 0 0 3.97 543.45 614.33)"  >
<path style="stroke: none; stroke-width: 1; stroke-dasharray: none; stroke-linecap: butt; stroke-dashoffset: 0; stroke-linejoin: miter; stroke-miterlimit: 4; fill: rgb(243,118,97); fill-rule: nonzero; opacity: 1;" vector-effect="non-scaling-stroke"  transform=" translate(-21.5, -2.63)" d="M 0 0 C 14.19 0 28.38 0 43 0 C 41 4 41 4 40 5 C 37.21176262 5.1134515 34.44922655 5.16418263 31.66015625 5.16796875 C 30.82286484 5.17129715 29.98557343 5.17462555 29.12290955 5.17805481 C 27.34830272 5.18312756 25.57368633 5.18546303 23.79907227 5.18530273 C 21.07747744 5.18748797 18.35628857 5.20563633 15.63476562 5.22460938 C 13.91406389 5.22754342 12.19336023 5.22952814 10.47265625 5.23046875 C 9.65491226 5.23765427 8.83716827 5.24483978 7.99464417 5.25224304 C 2.22882204 5.22882204 2.22882204 5.22882204 0 3 C 0 2.01 0 1.02 0 0 Z" stroke-linecap="round" />
</g>
<g transform="matrix(3.97 0 0 3.97 499.76 445.01)"  >
<path style="stroke: none; stroke-width: 1; stroke-dasharray: none; stroke-linecap: butt; stroke-dashoffset: 0; stroke-linejoin: miter; stroke-miterlimit: 4; fill: rgb(252,245,243); fill-rule: nonzero; opacity: 1;" vector-effect="non-scaling-stroke"  transform=" translate(-0.5, -11)" d="M 0 0 C 1.98 0 3.96 0 6 0 C 5.50471859 5.64620809 4.40666753 9.80159814 2 15 C 1.31163487 16.99263591 0.63718601 18.99041337 0 21 C -1.65 21.33 -3.3 21.66 -5 22 C -4.60759577 16.03274951 -3.49069774 11.50029084 -1 6 C -0.60235737 4.01178687 -0.24544834 2.01267638 0 0 Z" stroke-linecap="round" />
</g>
<g transform="matrix(3.97 0 0 3.97 605.04 445.01)"  >
<path style="stroke: none; stroke-width: 1; stroke-dasharray: none; stroke-linecap: butt; stroke-dashoffset: 0; stroke-linejoin: miter; stroke-miterlimit: 4; fill: rgb(252,246,245); fill-rule: nonzero; opacity: 1;" vector-effect="non-scaling-stroke"  transform=" translate(0, -11)" d="M 0 0 C 1.65 0 3.3 0 5 0 C 5.47017292 5.52453178 4.36078577 8.88335199 1.95703125 13.84375 C 0.76964755 16.51899818 0.29765938 19.09782103 0 22 C -1.65 22 -3.3 22 -5 22 C -5.44948768 15.93191628 -4.43983609 11.85024037 -1.97265625 6.296875 C -1.08507198 4.20089288 -0.4835107 2.21905965 0 0 Z" stroke-linecap="round" />
</g>
<g transform="matrix(3.97 0 0 3.97 555.26 439.06)"  >
<path style="stroke: none; stroke-width: 1; stroke-dasharray: none; stroke-linecap: butt; stroke-dashoffset: 0; stroke-linejoin: miter; stroke-miterlimit: 4; fill: rgb(252,243,240); fill-rule: nonzero; opacity: 1;" vector-effect="non-scaling-stroke"  transform=" translate(-1.47, -9.5)" d="M 0 0 C 2.31 0 4.62 0 7 0 C 5.70024676 6.71539173 3.70071112 12.72019113 1 19 C -0.65 19 -2.3 19 -4 19 C -4.32160194 13.63996775 -3.49548739 10.69151629 -1 6 C -0.29241674 2.7633037 -0.29241674 2.7633037 0 0 Z" stroke-linecap="round" />
</g>
</svg>