<?xml version="1.0" encoding="UTF-8" standalone="no"?>
<svg
   xmlns:dc="http://purl.org/dc/elements/1.1/"
   xmlns:cc="http://creativecommons.org/ns#"
   xmlns:rdf="http://www.w3.org/1999/02/22-rdf-syntax-ns#"
   xmlns:svg="http://www.w3.org/2000/svg"
   xmlns="http://www.w3.org/2000/svg"
   viewBox="0 0 266.66666 266.66666"
   height="266.66666"
   width="266.66666"
   xml:space="preserve"
   id="svg2"
   version="1.1"><metadata
     id="metadata8"><rdf:RDF><cc:Work
         rdf:about=""><dc:format>image/svg+xml</dc:format><dc:type
           rdf:resource="http://purl.org/dc/dcmitype/StillImage" /></cc:Work></rdf:RDF></metadata><defs
     id="defs6"><linearGradient
       id="linearGradient30"
       spreadMethod="pad"
       gradientTransform="matrix(135.912,0,0,-135.912,32.043995,100)"
       gradientUnits="userSpaceOnUse"
       y2="0"
       x2="1"
       y1="0"
       x1="0"><stop
         id="stop24"
         offset="0"
         style="stop-opacity:1;stop-color:#f26f61" /><stop
         id="stop26"
         offset="0.00302484"
         style="stop-opacity:1;stop-color:#f26f61" /><stop
         id="stop28"
         offset="1"
         style="stop-opacity:1;stop-color:#f58e58" /></linearGradient></defs><g
     transform="matrix(1.3333333,0,0,-1.3333333,0,266.66667)"
     id="g10"><g
       id="g12"><g
         id="g14"><g
           id="g20"><g
             id="g22"><path
               id="path32"
               style="fill:url(#linearGradient30);stroke:none"
               d="M 39.392,96.47 74.263,21.421 c 10.18,-21.911 41.309,-21.879 51.473,0 v 0 l 34.873,75.051 C 183.319,141.323 150.657,195 100,195 v 0 C 49.332,195 16.682,141.311 39.392,96.47 m 39.375,30.633 c 0,11.707 9.526,21.231 21.233,21.231 v 0 c 11.708,0 21.233,-9.524 21.233,-21.231 v 0 c 0,-11.708 -9.525,-21.231 -21.233,-21.231 v 0 c -11.707,0 -21.233,9.523 -21.233,21.231" /></g></g></g></g></g></svg>