<?xml version="1.0" encoding="UTF-8" standalone="no" ?>
<!DOCTYPE svg PUBLIC "-//W3C//DTD SVG 1.1//EN" "http://www.w3.org/Graphics/SVG/1.1/DTD/svg11.dtd">
<svg xmlns="http://www.w3.org/2000/svg" xmlns:xlink="http://www.w3.org/1999/xlink" version="1.1" width="1080" height="1080" viewBox="0 0 1080 1080" xml:space="preserve">
<desc>Created with Fabric.js 5.2.4</desc>
<defs>
</defs>
<g transform="matrix(1 0 0 1 540 540)" id="5760ee7a-4d0e-495a-82a8-9e3621525125"  >
<rect style="stroke: none; stroke-width: 1; stroke-dasharray: none; stroke-linecap: butt; stroke-dashoffset: 0; stroke-linejoin: miter; stroke-miterlimit: 4; fill: rgb(255,255,255); fill-rule: nonzero; opacity: 1; visibility: hidden;" vector-effect="non-scaling-stroke"  x="-540" y="-540" rx="0" ry="0" width="1080" height="1080" />
</g>
<g transform="matrix(1 0 0 1 540 540)" id="e1805539-19f5-42bb-8a00-b0a96213c124"  >
</g>
<g transform="matrix(7.82 0 0 7.82 517.36 571.12)"  >
<path style="stroke: none; stroke-width: 1; stroke-dasharray: none; stroke-linecap: butt; stroke-dashoffset: 0; stroke-linejoin: miter; stroke-miterlimit: 4; fill: rgb(226,228,228); fill-rule: nonzero; opacity: 1;" vector-effect="non-scaling-stroke"  transform=" translate(15.63, -46.63)" d="M 0 0 C 9.25687638 5.36099675 15.53503126 12.11293261 19.171875 22.2578125 C 20.01085294 25.8205146 20.39070528 29.22476349 20.484375 32.8828125 C 20.54044922 34.29433594 20.54044922 34.29433594 20.59765625 35.734375 C 19.26113197 46.79441996 13.07079189 57.44832624 8.4543457 67.47558594 C 7.22978711 70.14280542 6.02204 72.81724927 4.81445312 75.4921875 C 4.02966476 77.20359261 3.24389192 78.91454669 2.45703125 80.625 C 2.10165787 81.41776337 1.74628448 82.21052673 1.38014221 83.02731323 C -1.32566132 88.83461007 -4.42155799 92.65343449 -9.828125 96.2578125 C -14.63447235 96.8307053 -19.25381173 96.89423701 -23.765625 95.0703125 C -28.70965661 90.72555745 -31.32060191 85.59620436 -34.05078125 79.73828125 C -34.43753525 78.92087967 -34.82428925 78.10347809 -35.22276306 77.26130676 C -36.03684284 75.53726612 -36.84770089 73.81170094 -37.65551758 72.0847168 C -38.88325557 69.46106084 -40.12139459 66.84252026 -41.36132812 64.22460938 C -42.15426613 62.54195884 -42.94660352 60.85902511 -43.73828125 59.17578125 C -44.28682518 58.01443916 -44.28682518 58.01443916 -44.84645081 56.82963562 C -49.98674825 45.81518107 -53.96560881 34.6121996 -50.62109375 22.37890625 C -46.60493091 11.63616525 -40.06320177 4.36765534 -29.828125 -0.7421875 C -20.71576734 -4.43740564 -8.87975338 -4.26108971 0 0 Z" stroke-linecap="round" />
</g>
<g transform="matrix(7.82 0 0 7.82 520.76 463.74)"  >
<path style="stroke: none; stroke-width: 1; stroke-dasharray: none; stroke-linecap: butt; stroke-dashoffset: 0; stroke-linejoin: miter; stroke-miterlimit: 4; fill: rgb(255,255,255); fill-rule: nonzero; opacity: 1;" vector-effect="non-scaling-stroke"  transform=" translate(2.68, -10.63)" d="M 0 0 C 3.38305471 1.7565861 5.45478197 3.09920499 7.4375 6.375 C 8.15280486 9.71308937 8.02173019 11.73046338 7 15 C 3.96464129 18.50233698 1.89096907 20.74214058 -2.75 21.375 C -7.2753858 20.8528401 -8.7671103 19.15770622 -12 16 C -13.57455739 12.85088521 -13.34799118 10.47991184 -13 7 C -9.6917275 1.44506484 -6.43313684 -0.61857085 0 0 Z" stroke-linecap="round" />
</g>
</svg>