<?xml version="1.0" encoding="UTF-8"?>
<svg version="1.1" xmlns="http://www.w3.org/2000/svg" width="1080" height="1080">
<path d="M0 0 C0.75674011 0.00027191 1.51348022 0.00054382 2.29315186 0.00082397 C13.52695169 0.01922074 24.72389545 0.3267961 35.9375 1 C37.83665161 1.10501831 37.83665161 1.10501831 39.77416992 1.2121582 C52.05715227 2.04564926 59.80201826 5.4428027 70.0625 12.125 C72.20141205 13.48446965 74.34206868 14.84119799 76.484375 16.1953125 C77.54978516 16.86981445 78.61519531 17.54431641 79.71289062 18.23925781 C99.88739338 30.91982901 121.42947211 41.88767939 144.8125 47.1875 C145.64040039 47.38069824 146.46830078 47.57389648 147.32128906 47.77294922 C173.63796755 53.63226059 201.74485595 52.60675473 228.375 49.375 C229.06577637 49.2925 229.75655273 49.21 230.46826172 49.125 C240.07077595 47.94116006 247.4707814 45.70576547 255.85546875 40.7734375 C256.41350693 40.44637817 256.9715451 40.11931885 257.54649353 39.78234863 C259.36695288 38.71345392 261.1836014 37.63827856 263 36.5625 C264.27906467 35.80863867 265.55819998 35.05489719 266.83740234 34.30126953 C275.90686147 28.94835106 284.93387932 23.52532961 293.9375 18.0625 C294.50947113 17.71564148 295.08144226 17.36878296 295.67074585 17.01141357 C297.32578416 16.00667673 298.97931496 14.99945799 300.6328125 13.9921875 C301.67002441 13.36103027 302.70723633 12.72987305 303.77587891 12.07958984 C305.80414632 10.81579563 307.81207479 9.51877384 309.79833984 8.18994141 C315.03786835 4.69065609 318.8772858 2.3371695 325.1875 1.8125 C326.90066406 1.64621094 326.90066406 1.64621094 328.6484375 1.4765625 C329.28990723 1.43273437 329.93137695 1.38890625 330.59228516 1.34375 C332.21339353 1.22966276 333.83281356 1.09081287 335.45068359 0.9375 C360.31389623 -1.30351064 387.304003 -1.84347698 411.8125 3.1875 C412.79702148 3.38617676 413.78154297 3.58485352 414.79589844 3.78955078 C458.65952439 12.91356771 458.65952439 12.91356771 471.9375 25.625 C472.49663086 26.152146 473.05576172 26.67929199 473.63183594 27.22241211 C475.36804465 28.86799991 477.09174242 30.52577355 478.8125 32.1875 C479.6154248 32.95755371 479.6154248 32.95755371 480.43457031 33.74316406 C487.43986828 40.48755707 493.86699089 47.47273905 499.8125 55.1875 C500.21758789 55.70022461 500.62267578 56.21294922 501.04003906 56.74121094 C546.10399458 113.97346565 559.72551932 190.2930477 562.56640625 261.3203125 C562.63212068 262.93065867 562.69795467 264.54099997 562.76390076 266.15133667 C562.9005745 269.50106343 563.0356887 272.85084841 563.16967773 276.20068359 C563.34024036 280.46128493 563.51495053 284.72170448 563.69085789 288.98208809 C563.82730369 292.29886932 563.96142812 295.61574147 564.0948925 298.93264389 C564.15834927 300.50251084 564.22252339 302.07234899 564.28747749 303.64215469 C565.36743068 329.8367667 565.36743068 329.8367667 562.8125 340.9375 C562.48028442 342.40678955 562.48028442 342.40678955 562.14135742 343.90576172 C553.68075444 379.82120699 537.3415757 410.65169111 511.8125 437.1875 C511.29252441 437.72938965 510.77254883 438.2712793 510.23681641 438.82958984 C503.17411829 446.14718233 495.96311736 453.0713973 487.8125 459.1875 C486.91015625 459.87714844 486.0078125 460.56679688 485.078125 461.27734375 C480.98173844 463.67343589 477.10473564 464.66832314 472.5 465.6875 C471.58629639 465.89544189 470.67259277 466.10338379 469.73120117 466.31762695 C437.08079401 473.52830377 404.63393342 474.49506487 371.36243081 474.51883328 C366.23469932 474.52466374 361.10700297 474.5418574 355.97929382 474.55752563 C345.96773734 474.58635834 335.95618779 474.60493647 325.94460195 474.61986574 C314.24562096 474.63768402 302.54667062 474.66569641 290.84771109 474.69399796 C269.94487322 474.7442029 249.04202762 474.78500525 228.13916016 474.82055664 C207.93568922 474.85492456 187.73224894 474.89636114 167.52880859 474.94555664 C141.91294206 475.00791536 116.2970693 475.06406982 90.68117768 475.11508697 C82.56107824 475.13143307 74.44098537 475.14992621 66.32089233 475.16916466 C56.39461446 475.19255521 46.46833758 475.21181522 36.54204243 475.22619756 C31.49472525 475.23358698 26.44742598 475.24252586 21.40012169 475.25624657 C2.96904261 475.30518656 -15.44830953 475.28928345 -33.87255859 474.73493958 C-34.54912608 474.71459503 -35.22569357 474.69425049 -35.92276311 474.67328944 C-71.88712751 473.55734307 -99.59981572 471.42807939 -128.1875 448.1875 C-129.11304688 447.44757813 -130.03859375 446.70765625 -130.9921875 445.9453125 C-166.34708793 416.01224984 -185.25759925 365.03281634 -189.5 320.3125 C-190.95113975 302.13547945 -190.43347043 283.75763221 -190.2142334 265.54016113 C-190.19098223 263.49395203 -190.17538349 261.44765877 -190.16113281 259.40136719 C-189.46076749 180.50159119 -161.11367411 98.35251273 -106.1875 41.1875 C-105.671875 40.64996094 -105.15625 40.11242187 -104.625 39.55859375 C-75.70161536 9.59229861 -41.10505396 -0.05535846 0 0 Z " fill="#F37E5C" transform="translate(320.1875,555.8125)"/>
<path d="M0 0 C1.09948975 0.31606201 2.19897949 0.63212402 3.33178711 0.95776367 C15.61369105 4.64526519 25.58816131 10.79217451 36.0625 18 C37.31173948 18.854045 38.56100729 19.70804857 39.81030273 20.56201172 C48.87263441 26.77633403 57.80112907 33.13944611 66.4375 39.9375 C67.42105469 40.70964844 68.40460938 41.48179687 69.41796875 42.27734375 C76.37221287 47.85839439 82.97455344 53.80061926 89.4375 59.9375 C89.97165527 60.44297363 90.50581055 60.94844727 91.05615234 61.46923828 C111.55577857 81.00632634 132.31670026 107.23848764 136.9375 135.6875 C137.1447168 136.93466797 137.35193359 138.18183594 137.56542969 139.46679688 C147.956484 203.58967707 150.99156418 277.98874805 116.4375 335.9375 C114.36068428 338.74277722 112.27335991 341.17865355 109.76416016 343.59643555 C107.45993025 345.91493089 105.48035137 348.31937527 103.46484375 350.890625 C98.42866539 357.10213592 92.92659851 362.75182886 87.25439453 368.38134766 C85.56436758 370.06064428 83.88532236 371.75038969 82.20703125 373.44140625 C48.04455849 407.65235106 2.12861885 433.87737853 -46.875 436.1875 C-48.07446259 436.24821182 -48.07446259 436.24821182 -49.29815674 436.31015015 C-111.86307021 439.41106442 -170.52416702 425.946192 -222.5625 389.9375 C-225.2890625 387.453125 -225.2890625 387.453125 -227.1875 385.1875 C-227.91453125 384.3315625 -228.6415625 383.475625 -229.390625 382.59375 C-230.10734375 381.7171875 -230.8240625 380.840625 -231.5625 379.9375 C-232.27921875 379.0815625 -232.9959375 378.225625 -233.734375 377.34375 C-236.03973368 374.56423954 -238.30528382 371.75623124 -240.5625 368.9375 C-241.19260986 368.15681152 -241.19260986 368.15681152 -241.83544922 367.36035156 C-273.87158824 327.61510827 -293.37745451 284.921536 -298.5625 233.9375 C-298.65748779 233.06053467 -298.75247559 232.18356934 -298.8503418 231.2800293 C-299.87144101 220.35362321 -299.82040353 209.37643443 -299.85766602 198.41137695 C-299.86916088 196.06626337 -299.88957276 193.72117544 -299.91918945 191.3762207 C-300.10782518 176.37283012 -299.29306133 162.49638925 -295.5625 147.9375 C-295.31089111 146.90455811 -295.05928223 145.87161621 -294.80004883 144.80737305 C-294.19478581 142.45287526 -293.53187435 140.13434272 -292.8125 137.8125 C-292.56282471 136.99813477 -292.31314941 136.18376953 -292.0559082 135.34472656 C-283.38004581 108.0362282 -267.63092976 84.08521658 -248.5625 62.9375 C-248.07281738 62.3914209 -247.58313477 61.8453418 -247.07861328 61.28271484 C-237.79936921 50.96938423 -228.25121818 40.54268182 -217.578125 31.6484375 C-216.12509959 30.41505546 -214.72388987 29.11970643 -213.359375 27.7890625 C-189.45994272 5.67850988 -151.18882502 -5.97126857 -119.5625 -11.0625 C-118.33273437 -11.26746094 -117.10296875 -11.47242188 -115.8359375 -11.68359375 C-76.91484195 -17.41416084 -37.37297603 -10.836134 0 0 Z " fill="#F37E5D" transform="translate(580.5625,140.0625)"/>
</svg>
