<?xml version="1.0" encoding="UTF-8" standalone="no"?>
<svg
   xmlns:dc="http://purl.org/dc/elements/1.1/"
   xmlns:cc="http://creativecommons.org/ns#"
   xmlns:rdf="http://www.w3.org/1999/02/22-rdf-syntax-ns#"
   xmlns:svg="http://www.w3.org/2000/svg"
   xmlns="http://www.w3.org/2000/svg"
   viewBox="0 0 266.66666 266.66666"
   height="266.66666"
   width="266.66666"
   xml:space="preserve"
   id="svg2"
   version="1.1"><metadata
     id="metadata8"><rdf:RDF><cc:Work
         rdf:about=""><dc:format>image/svg+xml</dc:format><dc:type
           rdf:resource="http://purl.org/dc/dcmitype/StillImage" /></cc:Work></rdf:RDF></metadata><defs
     id="defs6"><linearGradient
       id="linearGradient30"
       spreadMethod="pad"
       gradientTransform="matrix(91.525871,0,0,-91.525871,53.038387,149.23851)"
       gradientUnits="userSpaceOnUse"
       y2="0"
       x2="1"
       y1="0"
       x1="0"><stop
         id="stop24"
         offset="0"
         style="stop-opacity:1;stop-color:#f26f61" /><stop
         id="stop26"
         offset="0.00302484"
         style="stop-opacity:1;stop-color:#f26f61" /><stop
         id="stop28"
         offset="1"
         style="stop-opacity:1;stop-color:#f58e58" /></linearGradient><linearGradient
       id="linearGradient52"
       spreadMethod="pad"
       gradientTransform="matrix(158.51521,0,0,-158.51521,20.742395,54.111534)"
       gradientUnits="userSpaceOnUse"
       y2="0"
       x2="1"
       y1="0"
       x1="0"><stop
         id="stop46"
         offset="0"
         style="stop-opacity:1;stop-color:#f26f61" /><stop
         id="stop48"
         offset="0.00302484"
         style="stop-opacity:1;stop-color:#f26f61" /><stop
         id="stop50"
         offset="1"
         style="stop-opacity:1;stop-color:#f58e58" /></linearGradient></defs><g
     transform="matrix(1.3333333,0,0,-1.3333333,0,266.66667)"
     id="g10"><g
       id="g12"><g
         id="g14"><g
           id="g20"><g
             id="g22"><path
               id="path32"
               style="fill:url(#linearGradient30);stroke:none"
               d="M 66.446,181.594 C 57.549,172.698 53.039,161.812 53.039,149.24 v 0 c 0,-12.574 4.51,-23.461 13.408,-32.357 v 0 c 8.897,-8.894 19.785,-13.406 32.354,-13.406 v 0 c 12.573,0 23.461,4.51 32.357,13.407 v 0 c 8.895,8.896 13.406,19.782 13.406,32.356 v 0 c 0,12.57 -4.511,23.457 -13.407,32.355 v 0 C 122.26,190.491 111.373,195 98.801,195 v 0 c -12.574,0 -23.459,-4.509 -32.355,-13.406" /></g></g></g></g><g
       id="g34"><g
         id="g36"><g
           id="g42"><g
             id="g44"><path
               id="path54"
               style="fill:url(#linearGradient52);stroke:none"
               d="M 48.803,100.737 C 44.626,99.083 41.009,96.811 38.054,93.983 v 0 c -2.822,-2.701 -5.341,-5.981 -7.48,-9.748 v 0 c -2.062,-3.632 -3.732,-7.418 -4.961,-11.26 v 0 C 24.425,69.263 23.433,65.202 22.66,60.907 v 0 C 21.898,56.648 21.378,52.608 21.121,48.896 v 0 C 20.87,45.262 20.742,41.488 20.742,37.676 v 0 c 0,-9.917 3.152,-17.946 9.369,-23.867 v 0 C 36.252,7.965 44.378,5 54.257,5 v 0 h 91.485 c 9.88,0 18.002,2.963 24.146,8.809 v 0 c 6.218,5.916 9.369,13.947 9.369,23.869 v 0 c 0,3.829 -0.13,7.606 -0.383,11.224 v 0 c -0.256,3.701 -0.777,7.739 -1.539,12.005 v 0 c -0.772,4.295 -1.765,8.357 -2.953,12.07 v 0 c -1.227,3.837 -2.899,7.626 -4.962,11.258 v 0 c -2.141,3.768 -4.66,7.049 -7.482,9.749 v 0 c -2.954,2.826 -6.568,5.098 -10.75,6.755 v 0 c -4.166,1.649 -8.782,2.483 -13.721,2.483 v 0 c -1.94,0 -3.815,-0.796 -7.438,-3.154 v 0 c -2.229,-1.454 -4.836,-3.135 -7.748,-4.995 v 0 c -2.488,-1.585 -5.861,-3.072 -10.024,-4.417 v 0 c -4.064,-1.315 -8.19,-1.983 -12.262,-1.983 v 0 c -4.071,0 -8.196,0.668 -12.263,1.983 v 0 C 83.573,92 80.2,93.486 77.714,95.072 v 0 c -2.883,1.841 -5.493,3.524 -7.755,4.998 v 0 c -3.617,2.358 -5.496,3.153 -7.434,3.153 v 0 c -4.941,0 -9.556,-0.835 -13.722,-2.486" /></g></g></g></g></g></svg>