<?xml version="1.0" encoding="UTF-8" standalone="no" ?>
<!DOCTYPE svg PUBLIC "-//W3C//DTD SVG 1.1//EN" "http://www.w3.org/Graphics/SVG/1.1/DTD/svg11.dtd">
<svg xmlns="http://www.w3.org/2000/svg" xmlns:xlink="http://www.w3.org/1999/xlink" version="1.1" width="1080" height="1080" viewBox="0 0 1080 1080" xml:space="preserve">
<desc>Created with Fabric.js 5.2.4</desc>
<defs>
</defs>
<rect x="0" y="0" width="100%" height="100%" fill="transparent"></rect>
<g transform="matrix(1 0 0 1 540 540)" id="8e4d86f3-8856-4df4-b1c3-9de0cedf2860"  >
</g>
<g transform="matrix(1 0 0 1 540 540)" id="f5b71f97-a669-4445-a9de-2637fbbf46cb"  >
<rect style="stroke: none; stroke-width: 1; stroke-dasharray: none; stroke-linecap: butt; stroke-dashoffset: 0; stroke-linejoin: miter; stroke-miterlimit: 4; fill: rgb(255,255,255); fill-rule: nonzero; opacity: 1; visibility: hidden;" vector-effect="non-scaling-stroke"  x="-540" y="-540" rx="0" ry="0" width="1080" height="1080" />
</g>
<g transform="matrix(2.62 0 0 2.62 539.02 542.34)"  >
<path style="stroke: none; stroke-width: 1; stroke-dasharray: none; stroke-linecap: butt; stroke-dashoffset: 0; stroke-linejoin: miter; stroke-miterlimit: 4; fill: rgb(226,228,228); fill-rule: nonzero; opacity: 1;" vector-effect="non-scaling-stroke"  transform=" translate(-15.28, -45.43)" d="M 0 0 C 1.2079422 -0.00524185 2.4158844 -0.0104837 3.66043091 -0.0158844 C 6.2070438 -0.02228716 8.75368634 -0.02099034 11.30029297 -0.01245117 C 15.1759971 -0.00394862 19.05022269 -0.03271851 22.92578125 -0.06445312 C 25.40885373 -0.06606563 27.89192879 -0.06548667 30.375 -0.0625 C 31.52322235 -0.07373398 32.6714447 -0.08496796 33.85446167 -0.09654236 C 41.42412916 -0.03166785 48.84223502 0.80927606 54.93356323 5.73927307 C 61.58033334 12.98871451 61.76917516 21.48927251 61.71875 30.74609375 C 61.72162018 31.91438721 61.72449036 33.08268066 61.72744751 34.28637695 C 61.72948165 36.74723803 61.72399748 39.20811551 61.71142578 41.66894531 C 61.69536386 45.42159404 61.71129767 49.17316576 61.73046875 52.92578125 C 61.7284862 55.32422111 61.7246423 57.72266031 61.71875 60.12109375 C 61.72482269 61.23589111 61.73089539 62.35068848 61.7371521 63.49926758 C 61.6678635 71.2271231 60.84053281 78.16165401 55.5703125 84.24609375 C 55.12171875 84.78878906 54.673125 85.33148438 54.2109375 85.890625 C 47.47550944 91.3875136 40.09960935 90.886677 31.79296875 90.8671875 C 29.83864174 90.87505028 29.83864174 90.87505028 27.84483337 90.8830719 C 25.09543118 90.89197251 22.34631992 90.88961522 19.59692383 90.87963867 C 16.09215702 90.86815363 12.58839853 90.88836714 9.08376408 90.91755581 C 5.71594752 90.94042713 2.34836088 90.93344644 -1.01953125 90.9296875 C -2.26870834 90.94092148 -3.51788544 90.95215546 -4.80491638 90.96372986 C -12.84163698 90.89973234 -18.40127905 90.05124413 -24.703125 84.72265625 C -25.14914063 84.17351562 -25.59515625 83.624375 -26.0546875 83.05859375 C -26.51617187 82.51460938 -26.97765625 81.970625 -27.453125 81.41015625 C -31.38715025 75.07061237 -31.00155535 68.37913965 -31.015625 61.16796875 C -31.0222818 59.9793927 -31.0289386 58.79081665 -31.03579712 57.56622314 C -31.04590662 55.05474389 -31.05061467 52.54323786 -31.05029297 50.03173828 C -31.05465642 46.21080654 -31.09096996 42.39103935 -31.12890625 38.5703125 C -31.13477683 36.12370184 -31.13874461 33.67708573 -31.140625 31.23046875 C -31.15499603 30.09784607 -31.16936707 28.96522339 -31.18417358 27.79827881 C -31.14125889 20.25891842 -30.28159268 12.88511049 -25.37387085 6.81976318 C -18.03060567 0.08927729 -9.37177666 -0.02387646 0 0 Z" stroke-linecap="round" />
</g>
<g transform="matrix(2.62 0 0 2.62 546.08 550.68)"  >
<path style="stroke: none; stroke-width: 1; stroke-dasharray: none; stroke-linecap: butt; stroke-dashoffset: 0; stroke-linejoin: miter; stroke-miterlimit: 4; fill: rgb(253,254,254); fill-rule: nonzero; opacity: 1;" vector-effect="non-scaling-stroke"  transform=" translate(-25.65, -18.19)" d="M 0 0 C 14.19 0 28.38 0 43 0 C 43 1.98 43 3.96 43 6 C 43.94875 5.95875 44.8975 5.9175 45.875 5.875 C 49 6 49 6 51 8 C 51.66203597 12.29893489 51.20038406 16.26525844 50.0625 20.4375 C 47.65483619 23.42883988 47.11877019 23.32999731 43.5 23.8125 C 41.09750997 24.08254503 41.09750997 24.08254503 39 25 C 37.67539966 27.28635636 37.09937009 29.33176316 36.53515625 31.90625 C 36 34 36 34 34 36 C 29.87248852 36.45815988 25.71249232 36.32400858 21.5625 36.3125 C 20.40427734 36.32861328 19.24605469 36.34472656 18.05273438 36.36132812 C 16.94349609 36.36197266 15.83425781 36.36261719 14.69140625 36.36328125 C 13.16302124 36.36775269 13.16302124 36.36775269 11.60375977 36.37231445 C 9 36 9 36 7.22875977 34.80395508 C 5.65441381 32.4926413 5.19941418 30.51505578 4.6484375 27.7734375 C 4.33132812 26.22462891 4.33132812 26.22462891 4.0078125 24.64453125 C 3.79898438 23.56558594 3.59015625 22.48664063 3.375 21.375 C 3.1584375 20.31925781 2.941875 19.26351562 2.71875 18.17578125 C 1.49568082 12.08308478 0.69092757 6.21834811 0 0 Z" stroke-linecap="round" />
</g>
<g transform="matrix(2.62 0 0 2.62 535.2 621.16)"  >
<path style="stroke: none; stroke-width: 1; stroke-dasharray: none; stroke-linecap: butt; stroke-dashoffset: 0; stroke-linejoin: miter; stroke-miterlimit: 4; fill: rgb(253,254,254); fill-rule: nonzero; opacity: 1;" vector-effect="non-scaling-stroke"  transform=" translate(-24.5, -3.09)" d="M 0 0 C 16.17 0 32.34 0 49 0 C 49 1.65 49 3.3 49 5 C 47.41318011 6.58681989 45.78751654 6.12728536 43.58789062 6.12939453 C 42.65021851 6.13254669 41.71254639 6.13569885 40.74645996 6.13894653 C 39.72669067 6.1369223 38.70692139 6.13489807 37.65625 6.1328125 C 36.09710876 6.13424759 36.09710876 6.13424759 34.50646973 6.13571167 C 32.30395446 6.13639363 30.10143721 6.13453827 27.89892578 6.13037109 C 24.51460281 6.12502308 21.13041256 6.13031559 17.74609375 6.13671875 C 15.61197887 6.13605797 13.47786408 6.13477681 11.34375 6.1328125 C 10.32398071 6.13483673 9.30421143 6.13686096 8.25354004 6.13894653 C 6.84703186 6.13421829 6.84703186 6.13421829 5.41210938 6.12939453 C 4.58239624 6.12859894 3.75268311 6.12780334 2.89782715 6.12698364 C 1 6 1 6 0 5 C 0 3.35 0 1.7 0 0 Z" stroke-linecap="round" />
</g>
<g transform="matrix(2.62 0 0 2.62 519.35 475.56)"  >
<path style="stroke: none; stroke-width: 1; stroke-dasharray: none; stroke-linecap: butt; stroke-dashoffset: 0; stroke-linejoin: miter; stroke-miterlimit: 4; fill: rgb(251,252,252); fill-rule: nonzero; opacity: 1;" vector-effect="non-scaling-stroke"  transform=" translate(-3.45, -4.52)" d="M 0 0 C 2.31 0 4.62 0 7 0 C 7 2.97 7 5.94 7 9 C 5.00045254 9.04254356 2.99958364 9.04080783 1 9 C 0 8 0 8 -0.09765625 6.15234375 C -0.06510417 4.1015625 -0.03255208 2.05078125 0 0 Z" stroke-linecap="round" />
</g>
<g transform="matrix(2.62 0 0 2.62 550.9 479.61)"  >
<path style="stroke: none; stroke-width: 1; stroke-dasharray: none; stroke-linecap: butt; stroke-dashoffset: 0; stroke-linejoin: miter; stroke-miterlimit: 4; fill: rgb(251,252,252); fill-rule: nonzero; opacity: 1;" vector-effect="non-scaling-stroke"  transform=" translate(-3.5, -3.06)" d="M 0 0 C 2.31 0 4.62 0 7 0 C 7.042721 1.66611905 7.04063832 3.33382885 7 5 C 6 6 6 6 3.5 6.125 C 1 6 1 6 0 5 C -0.04063832 3.33382885 -0.042721 1.66611905 0 0 Z" stroke-linecap="round" />
</g>
<g transform="matrix(2.62 0 0 2.62 590.16 542.32)"  >
<path style="stroke: none; stroke-width: 1; stroke-dasharray: none; stroke-linecap: butt; stroke-dashoffset: 0; stroke-linejoin: miter; stroke-miterlimit: 4; fill: rgb(229,231,231); fill-rule: nonzero; opacity: 1;" vector-effect="non-scaling-stroke"  transform=" translate(-1.48, -3)" d="M 0 0 C 1.32 0 2.64 0 4 0 C 3.67 1.65 3.34 3.3 3 5 C 1.68 5.33 0.36 5.66 -1 6 C -1.042721 4.33388095 -1.04063832 2.66617115 -1 1 C -0.67 0.67 -0.34 0.34 0 0 Z" stroke-linecap="round" />
</g>
</svg>